<?xml version="1.0" standalone="no"?>
<!DOCTYPE svg PUBLIC "-//W3C//DTD SVG 20010904//EN"
 "http://www.w3.org/TR/2001/REC-SVG-20010904/DTD/svg10.dtd">
<svg version="1.0" xmlns="http://www.w3.org/2000/svg"
 width="512.000000pt" height="512.000000pt" viewBox="0 0 512.000000 512.000000"
 preserveAspectRatio="xMidYMid meet">

<g transform="translate(0.000000,512.000000) scale(0.100000,-0.100000)"
fill="#000000" stroke="none">
<path d="M2386 5050 c-477 -60 -918 -361 -1233 -842 -228 -347 -375 -768 -439
-1254 -24 -179 -24 -609 0 -788 52 -394 149 -719 307 -1024 294 -571 736 -943
1252 -1054 146 -31 408 -31 554 0 663 143 1211 730 1453 1557 90 309 124 557
124 915 0 283 -11 404 -59 650 -108 553 -375 1064 -728 1395 -237 222 -508
368 -790 426 -115 23 -333 33 -441 19z m419 -75 c113 -23 269 -77 364 -125
851 -427 1336 -1638 1135 -2830 -151 -897 -664 -1608 -1317 -1825 -170 -57
-252 -70 -437 -70 -185 0 -267 13 -437 70 -653 217 -1166 928 -1317 1825 -241
1427 501 2820 1580 2969 97 14 334 6 429 -14z"/>
<path d="M2610 4791 c-7 -56 -11 -103 -9 -105 2 -2 33 -7 69 -11 73 -7 95 2
105 46 4 17 1 31 -9 42 -14 13 -14 16 -1 27 22 19 18 57 -7 74 -13 8 -48 17
-79 21 l-57 6 -12 -100z m98 53 c13 -4 22 -14 22 -25 0 -15 -7 -19 -35 -19
-31 0 -35 3 -35 25 0 26 9 29 48 19z m7 -88 c28 -21 12 -46 -30 -46 -32 0 -35
2 -35 30 0 25 4 30 23 30 13 0 32 -6 42 -14z"/>
<path d="M2334 4869 c-7 -12 -44 -175 -44 -196 0 -24 38 -14 44 12 9 35 71 47
92 16 15 -20 54 -30 54 -12 0 4 -23 49 -51 100 -36 64 -56 91 -69 91 -10 0
-22 -5 -26 -11z m56 -106 c0 -7 -9 -13 -20 -13 -21 0 -24 10 -13 49 l6 23 13
-23 c7 -13 13 -30 14 -36z"/>
<path d="M2108 4814 c-53 -28 -64 -97 -25 -154 38 -58 104 -64 153 -15 22 23
35 85 17 85 -16 0 -30 -16 -37 -38 -18 -57 -85 -49 -106 13 -10 30 -9 40 4 60
17 26 54 33 72 15 11 -11 44 -3 44 11 0 14 -44 39 -70 39 -14 -1 -37 -7 -52
-16z"/>
<path d="M2857 4819 c-25 -15 -47 -63 -47 -104 0 -79 100 -125 163 -74 54 42
55 139 2 173 -27 18 -91 21 -118 5z m101 -41 c16 -16 15 -53 -3 -88 -30 -59
-119 -21 -100 42 16 52 72 77 103 46z"/>
<path d="M1960 4750 c-12 -8 -8 -23 30 -100 45 -92 47 -94 74 -84 12 5 7 22
-32 100 -25 52 -49 94 -52 94 -3 0 -12 -5 -20 -10z"/>
<path d="M3044 4674 c-46 -84 -47 -87 -28 -101 37 -28 96 -54 110 -49 24 9 15
25 -26 46 -22 11 -40 23 -40 25 0 3 16 38 36 77 28 56 33 73 22 79 -7 5 -16 9
-20 9 -4 0 -28 -39 -54 -86z"/>
<path d="M3202 4589 c-51 -77 -59 -109 -29 -109 8 0 38 36 67 80 44 66 50 83
40 95 -7 8 -15 15 -19 15 -3 0 -30 -37 -59 -81z"/>
<path d="M1791 4647 c-8 -11 1 -33 42 -95 28 -45 55 -82 59 -82 15 0 118 71
118 81 0 20 -30 20 -59 0 -16 -12 -33 -21 -39 -21 -5 0 -29 29 -52 65 -45 69
-51 73 -69 52z"/>
<path d="M1641 4607 c-7 -9 -11 -26 -9 -39 4 -22 5 -22 17 6 14 35 10 54 -8
33z"/>
<path d="M3315 4587 c-8 -19 -25 -64 -39 -100 -24 -64 -24 -66 -6 -82 18 -17
23 -15 110 40 74 46 88 60 79 71 -16 20 -24 18 -82 -21 -29 -19 -53 -31 -55
-27 -1 5 7 30 18 56 24 57 25 70 5 86 -13 10 -17 7 -30 -23z"/>
<path d="M2470 4584 c-363 -40 -678 -255 -926 -634 -329 -501 -457 -1200 -344
-1872 124 -731 537 -1323 1040 -1490 120 -41 203 -51 346 -45 99 4 150 11 218
31 690 206 1176 1141 1116 2148 -37 610 -238 1123 -579 1481 -232 242 -473
363 -756 380 -44 3 -96 3 -115 1z m232 -48 c208 -40 388 -139 572 -316 300
-289 507 -727 588 -1245 30 -190 32 -619 5 -795 -68 -437 -196 -769 -410
-1070 -74 -103 -247 -278 -340 -343 -593 -419 -1288 -144 -1676 663 -108 225
-179 461 -216 714 -115 790 105 1589 565 2056 181 183 397 304 607 340 78 13
226 11 305 -4z"/>
<path d="M2433 4430 c-279 -41 -545 -234 -758 -550 -126 -187 -253 -494 -304
-732 l-19 -88 39 0 39 0 -1 -52 c0 -29 -4 -100 -8 -158 -5 -58 -7 -106 -6
-108 1 -1 40 41 85 95 46 54 86 99 90 101 4 1 35 -34 70 -78 34 -44 66 -80 69
-80 3 0 31 95 62 210 l56 210 -30 0 c-27 0 -29 2 -24 29 11 54 88 235 138 327
97 176 232 331 356 410 196 126 398 106 589 -58 156 -134 295 -343 377 -568
54 -149 53 -140 17 -140 -22 0 -31 -4 -27 -13 2 -6 28 -100 56 -207 29 -107
54 -196 55 -198 2 -2 34 33 71 78 37 44 70 80 73 79 4 0 43 -44 87 -97 93
-113 91 -116 77 78 -5 69 -8 128 -5 133 2 4 20 7 39 7 23 0 34 5 34 15 0 33
-71 288 -108 385 -166 441 -459 787 -776 916 -132 54 -280 73 -413 54z m354
-72 c148 -51 254 -120 393 -258 227 -224 395 -540 490 -917 11 -45 20 -84 20
-87 0 -4 -73 -5 -161 -4 l-162 3 -28 100 c-133 475 -435 839 -736 885 -212 33
-446 -112 -634 -394 -99 -147 -199 -375 -239 -543 l-12 -53 -159 0 c-147 0
-159 1 -159 18 0 34 68 266 105 362 191 485 507 820 862 910 62 16 103 19 198
16 106 -3 132 -7 222 -38z m-991 -1205 c-3 -10 -21 -81 -41 -158 -21 -77 -38
-141 -40 -143 -1 -1 -29 32 -61 73 l-59 76 -30 -33 c-16 -18 -47 -53 -67 -78
l-38 -45 0 46 c0 25 3 74 6 108 l7 61 138 0 137 0 7 33 c12 50 24 77 35 77 6
0 9 -8 6 -17z m1524 -25 c6 -24 13 -49 15 -55 3 -10 40 -13 139 -13 74 0 137
-3 139 -7 3 -5 8 -53 11 -108 l7 -100 -43 50 c-24 27 -55 63 -69 79 l-26 29
-58 -72 c-32 -40 -61 -68 -65 -64 -7 7 -80 280 -80 296 0 4 4 7 10 7 5 0 14
-19 20 -42z"/>
<path d="M2529 4323 c0 -5 0 -30 0 -58 l1 -50 -22 30 c-50 65 -65 78 -81 72
-13 -5 -15 -16 -11 -59 10 -99 14 -118 30 -118 13 0 15 10 12 54 -1 30 0 52 4
50 4 -3 22 -25 39 -49 43 -60 69 -60 69 -1 0 76 -12 136 -26 136 -8 0 -14 -3
-15 -7z"/>
<path d="M2317 4283 c-9 -15 44 -163 58 -163 25 0 25 16 -1 94 -23 68 -43 92
-57 69z"/>
<path d="M2705 4254 c-30 -32 -34 -91 -7 -123 26 -33 81 -38 111 -10 21 19 21
23 7 31 -11 6 -23 4 -38 -6 -31 -22 -58 -4 -58 38 0 60 63 89 85 38 11 -24 45
-31 45 -8 0 7 -9 25 -21 40 -29 37 -90 37 -124 0z"/>
<path d="M2134 4195 c-45 -19 -60 -70 -28 -96 13 -10 24 -10 61 0 52 13 75 3
53 -24 -9 -11 -24 -15 -42 -13 -37 6 -57 -16 -29 -31 11 -6 26 -11 35 -11 25
0 76 50 76 75 0 32 -28 58 -54 50 -48 -14 -86 -17 -86 -8 0 18 28 35 48 29 11
-4 24 0 32 9 10 12 9 16 -6 21 -11 4 -21 8 -24 10 -3 1 -19 -4 -36 -11z"/>
<path d="M2887 4138 c-66 -46 -75 -55 -62 -67 11 -12 17 -12 29 -1 22 18 66
-12 66 -45 0 -27 19 -44 29 -26 4 6 15 46 25 87 16 65 16 78 4 90 -12 12 -25
7 -91 -38z m57 -32 c-7 -29 -14 -32 -31 -15 -9 9 -6 16 10 30 27 21 30 19 21
-15z"/>
<path d="M3015 4030 c-46 -46 -57 -62 -47 -72 9 -9 17 -6 37 12 l25 24 21 -21
c21 -21 21 -22 3 -52 -14 -23 -15 -34 -6 -43 8 -8 16 -6 31 13 11 13 20 32 21
42 0 10 8 17 18 17 24 0 42 19 42 45 0 18 -66 95 -81 95 -2 0 -31 -27 -64 -60z
m105 -32 c0 -23 -27 -24 -52 -1 -17 15 -17 17 -1 35 15 17 17 17 35 2 10 -10
18 -25 18 -36z"/>
<path d="M1971 4066 c-9 -10 -3 -33 25 -100 30 -70 40 -84 51 -75 8 7 11 20 7
31 -9 28 33 71 56 58 13 -7 22 -5 30 5 7 9 11 17 9 19 -5 4 -160 76 -164 76
-1 0 -8 -6 -14 -14z m89 -67 c0 -17 -30 -17 -40 1 -15 28 -13 31 15 18 14 -6
25 -15 25 -19z"/>
<path d="M1895 3986 c-6 -8 -25 -33 -43 -55 -28 -35 -31 -42 -17 -47 10 -4 21
1 29 12 13 17 16 17 51 -11 72 -58 75 -59 88 -46 9 10 0 23 -43 61 -53 46 -54
49 -37 67 17 19 14 33 -7 33 -6 0 -16 -6 -21 -14z"/>
<path d="M3142 3900 c-39 -33 -59 -56 -55 -65 3 -8 8 -15 12 -15 15 0 132 103
128 113 -7 23 -27 16 -85 -33z"/>
<path d="M3244 3885 c-4 -8 -1 -22 6 -30 9 -11 3 -20 -32 -45 -24 -18 -49 -34
-55 -37 -15 -6 -17 -29 -3 -38 5 -3 34 11 65 31 54 36 56 36 75 19 13 -12 24
-15 30 -9 6 6 -5 30 -31 67 -22 31 -43 57 -45 57 -3 0 -7 -7 -10 -15z"/>
<path d="M1787 3846 c-8 -21 133 -122 145 -103 13 20 11 22 -51 65 -73 52 -87
57 -94 38z"/>
<path d="M1715 3729 c-41 -64 -41 -63 36 -108 63 -36 75 -40 87 -27 12 12 10
16 -16 31 -27 16 -29 21 -19 43 10 21 16 23 48 18 66 -11 62 26 -4 41 -15 3
-32 14 -38 24 -6 12 -21 19 -39 19 -24 0 -35 -8 -55 -41z m71 -14 c3 -8 -1
-23 -8 -34 -13 -18 -17 -19 -33 -8 -14 11 -16 17 -6 35 13 25 39 29 47 7z"/>
<path d="M3280 3713 c-46 -8 -86 -16 -88 -18 -10 -10 20 -33 38 -28 13 4 23
-3 34 -24 13 -26 13 -32 0 -44 -11 -12 -12 -18 -2 -32 12 -14 20 -8 71 53 31
38 57 73 57 78 0 24 -28 28 -110 15z m44 -48 c-13 -20 -19 -23 -30 -14 -21 17
-17 27 14 32 15 2 28 5 30 6 1 0 -5 -10 -14 -24z"/>
<path d="M3405 3602 c5 -26 2 -30 -55 -57 -62 -30 -65 -32 -52 -52 6 -9 24 -5
70 17 l62 29 12 -24 c10 -18 17 -22 28 -15 12 7 10 18 -15 69 -30 64 -62 84
-50 33z"/>
<path d="M1631 3571 c-11 -27 -21 -54 -21 -59 0 -9 128 -72 147 -72 9 0 53 91
53 111 0 24 -29 4 -45 -31 -15 -33 -21 -38 -36 -30 -17 9 -17 13 -3 46 22 52
1 70 -22 20 -16 -33 -33 -44 -46 -30 -4 3 0 21 8 39 18 43 18 55 0 55 -7 0
-23 -22 -35 -49z"/>
<path d="M1583 3464 c-5 -13 7 -29 43 -60 l49 -43 -65 2 c-54 2 -65 -1 -68
-15 -3 -16 5 -18 71 -18 42 0 82 -3 90 -6 19 -7 33 32 18 50 -6 7 -38 34 -71
60 -52 41 -61 45 -67 30z"/>
<path d="M3425 3449 c-27 -11 -60 -24 -72 -29 l-22 -9 21 -53 c22 -60 32 -73
47 -64 8 5 6 18 -4 44 -9 20 -13 42 -11 49 10 25 34 13 46 -22 6 -19 18 -35
26 -35 17 0 17 7 3 50 -9 26 -9 34 2 41 10 6 19 -3 34 -36 14 -32 24 -42 33
-37 10 7 8 21 -9 65 -12 31 -27 57 -33 56 -6 0 -33 -9 -61 -20z"/>
<path d="M2508 3808 c-33 -11 -33 -8 -11 -95 23 -94 23 -308 -1 -430 -10 -53
-23 -93 -30 -93 -17 0 -112 37 -179 72 -82 40 -143 82 -193 130 l-42 40 -31
-17 c-18 -9 -36 -26 -40 -38 -28 -73 -111 -411 -104 -418 6 -6 28 -1 54 10 72
32 221 54 312 47 123 -10 179 -25 173 -44 -3 -10 -27 -100 -55 -202 -63 -231
-116 -404 -183 -590 l-53 -145 -7 68 c-13 111 -58 176 -151 217 -76 34 -162
30 -242 -9 -77 -38 -120 -87 -142 -160 -52 -178 59 -340 302 -438 44 -18 81
-36 83 -41 1 -5 -36 -84 -83 -177 -51 -102 -81 -171 -75 -175 6 -4 97 -30 204
-58 l194 -52 45 25 46 26 6 67 c11 124 27 257 30 260 2 2 24 -4 49 -12 26 -9
53 -16 61 -16 8 0 21 -13 30 -30 8 -16 22 -33 31 -38 14 -8 15 -18 10 -56 -4
-25 -11 -46 -16 -46 -5 0 -14 -9 -20 -21 -9 -16 -8 -25 6 -40 13 -15 15 -26 8
-50 -8 -27 -16 -34 -57 -44 -26 -6 -55 -19 -65 -28 -9 -8 -29 -18 -44 -22 -14
-4 -36 -18 -49 -31 -12 -13 -29 -24 -36 -24 -8 0 -22 -13 -31 -30 -9 -16 -22
-30 -28 -30 -18 0 -47 -38 -41 -54 35 -92 566 -129 799 -56 97 30 127 75 69
104 -15 8 -36 26 -45 40 -9 15 -21 26 -26 26 -5 0 -20 11 -34 25 -13 13 -37
27 -53 31 -15 4 -39 15 -52 26 -13 10 -41 21 -62 24 -33 6 -40 12 -50 41 -9
28 -8 37 5 52 21 23 20 37 -2 53 -10 7 -22 31 -25 52 -5 32 -2 44 18 68 14 16
25 35 25 42 0 8 17 16 38 20 81 13 196 80 339 197 108 89 217 155 305 187 62
22 92 27 198 29 69 1 128 2 133 2 12 1 8 31 -5 32 -7 1 -38 0 -70 -1 -49 -1
-57 1 -63 19 -3 12 -16 26 -27 32 -26 14 -21 41 29 157 35 79 38 95 38 177 0
80 -3 97 -31 155 l-31 65 -17 -59 c-10 -33 -31 -86 -47 -118 -57 -113 -58
-168 -3 -310 18 -45 18 -47 -1 -82 -11 -20 -26 -36 -35 -36 -47 0 -257 -23
-326 -35 -110 -20 -134 -19 -177 10 -20 14 -57 29 -81 34 -25 4 -52 16 -61 25
-9 9 -25 16 -36 16 -11 0 -37 17 -58 38 -20 20 -49 45 -64 55 -22 14 -27 26
-27 57 0 38 -18 60 -49 60 -21 0 -41 -33 -41 -70 0 -35 -4 -41 -44 -64 -24
-14 -53 -38 -65 -53 -11 -16 -21 -22 -21 -16 -1 40 91 434 186 801 20 74 23
75 129 33 120 -48 220 -119 270 -191 15 -22 33 -40 39 -40 7 0 26 15 43 33 25
27 38 60 77 207 56 214 56 215 14 206 -97 -20 -192 -27 -268 -21 -83 6 -218
30 -228 39 -7 8 46 171 87 266 33 77 115 212 173 283 13 17 18 30 12 36 -13
13 -351 101 -383 100 -14 0 -38 -5 -53 -11z m242 -48 c85 -22 161 -43 167 -45
8 -3 -8 -33 -43 -82 -31 -43 -79 -123 -106 -178 -50 -102 -126 -320 -115 -331
32 -32 344 -55 461 -35 38 7 69 11 71 9 2 -3 -53 -211 -85 -321 l-11 -38 -51
46 c-53 47 -152 109 -223 140 -56 24 -176 65 -190 65 -18 0 -143 -476 -205
-785 -15 -77 -33 -141 -39 -143 -6 -2 -17 -9 -24 -15 -21 -21 -73 -35 -91 -25
-22 12 -54 -7 -58 -34 -2 -15 -11 -24 -24 -26 -21 -3 -20 3 23 120 90 249 291
933 278 947 -3 2 -47 12 -97 22 -105 21 -284 25 -372 8 -32 -6 -60 -9 -62 -7
-3 4 85 340 92 347 1 2 29 -17 61 -42 32 -25 85 -62 117 -81 65 -39 253 -116
284 -116 16 0 22 16 40 98 37 166 45 240 38 372 -3 69 -8 137 -12 153 -5 21
-3 26 7 23 8 -3 84 -24 169 -46z m849 -1366 c1 -44 -24 -125 -57 -190 l-20
-39 -17 40 c-26 60 -16 134 31 230 l38 80 12 -40 c7 -22 13 -58 13 -81z
m-1652 -89 c57 -24 101 -62 125 -108 18 -34 22 -60 23 -139 1 -63 6 -102 15
-112 15 -19 51 -21 68 -4 6 6 15 8 19 4 4 -4 3 -10 -3 -14 -15 -10 -44 -88
-44 -118 0 -34 16 -22 24 18 7 34 51 88 72 88 6 0 17 -7 24 -15 10 -12 8 -20
-9 -41 -19 -25 -20 -29 -6 -44 14 -16 14 -18 -6 -23 -19 -5 -21 -11 -16 -42 3
-20 18 -52 32 -71 16 -21 21 -34 13 -34 -21 1 -104 66 -135 106 -23 32 -28 47
-28 96 1 63 -3 69 -23 38 -24 -38 -34 -12 -26 70 3 43 3 104 0 134 -6 48 -13
62 -52 100 -24 24 -44 51 -44 60 0 18 -36 40 -53 32 -7 -2 -2 -8 11 -11 36
-11 26 -28 -10 -18 -158 40 -270 -81 -224 -240 9 -30 34 -81 57 -113 22 -33
48 -71 57 -86 9 -16 23 -28 30 -28 12 0 92 -49 92 -56 0 -3 -17 3 -37 11 -111
46 -208 128 -248 208 -20 41 -25 66 -25 124 0 41 6 88 14 106 18 44 71 96 121
118 50 23 142 25 192 4z m-24 -89 c18 -7 45 -27 59 -44 42 -50 51 -93 44 -203
-5 -65 -3 -106 4 -119 8 -16 6 -30 -9 -65 -11 -25 -24 -45 -29 -45 -18 0 -126
86 -175 139 -61 65 -97 141 -97 205 0 113 98 177 203 132z m767 -134 c0 -15
-2 -15 -10 -2 -13 20 -13 33 0 25 6 -3 10 -14 10 -23z m-130 8 c0 -5 -4 -10
-10 -10 -5 0 -10 5 -10 10 0 6 5 10 10 10 6 0 10 -4 10 -10z m100 -6 c0 -8 -4
-12 -10 -9 -5 3 -10 10 -10 16 0 5 5 9 10 9 6 0 10 -7 10 -16z m888 -57 c2
-12 -3 -17 -17 -17 -12 0 -21 6 -21 13 0 31 32 34 38 4z m-747 -30 c39 -26 51
-57 21 -57 -11 0 -31 15 -46 34 -40 53 -32 61 25 23z m-421 6 c-1 -19 -19 -35
-30 -28 -10 6 -9 11 5 22 22 15 25 16 25 6z m226 -17 c8 -34 1 -61 -16 -61 -8
0 -16 8 -18 18 -5 25 6 67 18 67 5 0 12 -11 16 -24z m303 11 c13 -6 22 -16 20
-22 -6 -16 -62 -5 -84 16 -19 19 -19 19 10 19 17 0 41 -6 54 -13z m-638 -13
c56 -68 291 -104 504 -79 44 5 57 4 49 -4 -25 -26 -257 -39 -374 -20 -100 16
-210 71 -210 106 0 18 15 17 31 -3z m264 -20 c0 -24 -5 -30 -27 -32 -32 -4
-36 12 -12 46 21 30 39 23 39 -14z m151 11 c18 -28 13 -55 -10 -55 -15 0 -37
57 -29 73 8 14 23 7 39 -18z m674 5 c0 -5 -8 -10 -17 -10 -15 0 -16 2 -3 10
19 12 20 12 20 0z m-392 -32 c-5 -15 -76 -39 -83 -28 -3 4 12 15 33 23 45 19
55 20 50 5z m312 -2 c-27 -24 -197 -136 -208 -136 -5 0 -13 6 -15 13 -6 12
-15 3 -105 -102 -61 -71 -169 -124 -264 -129 -37 -3 -81 0 -96 6 -15 6 -40 13
-55 17 -37 8 -59 56 -45 97 20 57 126 109 162 79 11 -9 22 -7 50 10 25 15 44
19 65 14 19 -4 46 1 78 13 94 38 388 130 418 131 25 1 27 -1 15 -13z m-920
-96 c0 -6 -8 -22 -17 -36 -9 -15 -17 -47 -17 -74 -1 -56 20 -92 78 -130 48
-31 31 -38 -29 -11 -37 16 -49 28 -65 66 -27 62 -27 126 0 143 11 7 20 21 20
32 0 11 7 20 15 20 8 0 15 -5 15 -10z m-107 -214 c59 -34 66 -41 62 -65 -10
-59 -25 -209 -25 -248 0 -34 -4 -43 -17 -43 -21 0 -343 87 -350 94 -3 3 23 68
58 145 l63 140 36 -15 c19 -8 45 -25 57 -37 l22 -22 -50 0 c-46 0 -54 -4 -85
-37 -27 -30 -34 -46 -34 -79 0 -34 6 -48 38 -79 23 -23 51 -40 74 -44 80 -15
172 35 184 100 16 89 -31 158 -152 222 l-72 37 15 38 16 38 47 -53 c26 -29 77
-70 113 -92z m-183 -93 c0 -3 -7 -15 -17 -25 -15 -17 -15 -19 0 -36 10 -10 17
-30 17 -45 0 -36 25 -58 59 -51 16 4 32 1 35 -5 5 -7 -8 -11 -39 -11 -40 0
-52 5 -82 35 -31 31 -35 40 -30 72 4 19 14 44 23 54 17 19 34 25 34 12z m196
-54 c7 -46 -27 -102 -59 -97 -27 4 -29 33 -2 33 31 1 47 15 42 39 -3 11 -8 37
-12 56 -6 32 -6 34 9 19 9 -8 19 -31 22 -50z m402 24 c-12 -11 -26 -14 -52 -9
-52 10 -44 21 16 23 47 2 50 1 36 -14z m-556 -17 c11 -25 6 -56 -9 -56 -9 0
-33 48 -33 67 0 22 30 14 42 -11z m538 -61 c0 -19 -4 -35 -10 -35 -5 0 -10 16
-10 35 0 19 5 35 10 35 6 0 10 -16 10 -35z m-60 -5 c0 -16 -4 -30 -10 -30 -5
0 -10 14 -10 30 0 17 5 30 10 30 6 0 10 -13 10 -30z m91 -90 c-18 -15 -38 -20
-87 -20 -34 0 -66 5 -69 10 -4 6 16 10 52 11 32 0 67 4 78 9 38 16 52 11 26
-10z m-17 -56 c11 -30 6 -52 -14 -57 -17 -4 -20 0 -20 34 0 40 22 55 34 23z
m-74 -29 c0 -24 -5 -35 -15 -35 -16 0 -18 12 -9 48 10 34 24 26 24 -13z m-150
-57 c0 -26 -17 -40 -39 -33 -26 8 -27 21 -3 34 24 14 42 13 42 -1z m98 -31 c3
-23 0 -27 -22 -27 -33 0 -39 12 -20 39 20 28 38 22 42 -12z m133 23 c10 -6 19
-20 19 -30 0 -17 -7 -20 -50 -20 -44 0 -50 3 -50 20 0 12 10 24 23 30 30 12
35 12 58 0z m129 -11 c0 -5 -4 -9 -10 -9 -5 0 -10 7 -10 16 0 8 5 12 10 9 6
-3 10 -10 10 -16z m55 -29 c7 -12 -41 -44 -55 -35 -18 11 -11 33 13 38 12 2
25 5 29 6 4 0 9 -3 13 -9z m94 -44 c19 -20 8 -42 -26 -51 -22 -5 -31 -2 -41
13 -11 17 -21 19 -49 15 -26 -4 -34 -3 -29 5 4 7 15 12 25 12 10 0 24 7 32 16
15 18 65 12 88 -10z m-671 -8 c-6 -16 -36 -34 -44 -25 -9 9 15 37 33 37 8 0
13 -5 11 -12z m479 -35 c-2 -46 -12 -56 -22 -23 -9 29 -27 25 -19 -5 4 -15 2
-25 -4 -25 -6 0 -12 10 -14 23 -2 14 -11 23 -25 25 -19 3 -23 -1 -23 -22 0
-34 -16 -33 -26 2 l-8 27 -6 -35 c-5 -26 -8 -31 -13 -17 -20 52 -21 52 -25 19
-4 -38 -22 -33 -23 6 -1 26 -1 26 -11 -5 -8 -24 -17 -33 -32 -33 -33 0 -46 13
-44 45 1 17 -2 37 -6 46 -6 14 10 15 148 15 l154 -1 -1 -42z m-309 -25 c-2 -6
-10 -14 -16 -16 -7 -2 -10 2 -6 12 7 18 28 22 22 4z m562 -9 c0 -15 -63 -38
-149 -56 -165 -34 -591 -17 -591 24 0 12 8 14 33 10 209 -37 491 -30 624 16
68 23 83 24 83 6z m-765 -8 c3 -5 1 -12 -5 -16 -13 -8 -50 3 -50 16 0 12 47
12 55 0z"/>
<path d="M1728 2261 c-83 -53 -111 -159 -72 -273 16 -46 19 -49 22 -26 2 15
-2 36 -7 47 -6 11 -11 45 -11 76 0 47 6 66 32 107 37 57 71 78 143 88 l50 8
-56 1 c-45 1 -63 -4 -101 -28z"/>
<path d="M1690 1922 c0 -12 19 -26 26 -19 2 2 -2 10 -11 17 -9 8 -15 8 -15 2z"/>
<path d="M1649 4541 c-33 -33 -38 -75 -15 -120 52 -99 196 -70 196 39 0 34 -6
48 -34 76 -46 46 -104 48 -147 5z m116 -37 c29 -31 32 -60 8 -86 -24 -27 -58
-22 -87 13 -30 36 -32 55 -9 81 23 26 60 22 88 -8z"/>
<path d="M3425 4400 c-66 -66 -68 -71 -52 -87 16 -17 21 -14 89 54 61 62 70
74 59 87 -8 9 -16 16 -20 16 -4 0 -38 -31 -76 -70z"/>
<path d="M1501 4393 c-28 -31 -51 -60 -51 -64 0 -19 24 -19 43 -1 l21 21 64
-56 c56 -50 65 -54 78 -41 14 14 9 21 -45 73 -58 55 -60 58 -45 81 15 22 12
44 -6 44 -5 0 -31 -26 -59 -57z"/>
<path d="M3510 4323 c-52 -20 -97 -37 -99 -39 -2 -2 2 -10 8 -18 8 -10 23 -13
40 -10 37 8 76 -37 60 -67 -9 -17 2 -59 16 -59 6 0 105 182 105 194 0 13 -20
37 -29 35 -4 -1 -49 -17 -101 -36z m70 -32 c0 -5 -8 -18 -17 -30 l-18 -22 -13
21 c-11 18 -10 22 10 30 30 12 38 12 38 1z"/>
<path d="M1383 4252 c-9 -15 -2 -34 46 -110 48 -79 58 -89 70 -77 11 11 12 20
4 38 -16 34 22 83 58 74 18 -5 28 -1 36 13 11 17 5 21 -86 49 -117 36 -113 36
-128 13z m85 -43 c27 -9 30 -13 19 -30 -16 -25 -20 -24 -40 11 -21 34 -21 34
21 19z"/>
<path d="M3645 4179 c-38 -27 -77 -54 -85 -59 -13 -8 -13 -11 0 -24 14 -14 21
-12 69 20 50 34 52 34 46 12 -4 -12 -14 -35 -21 -50 -29 -56 -32 -73 -19 -92
13 -17 17 -15 77 25 106 71 109 74 95 93 -11 15 -17 13 -64 -19 -29 -20 -53
-31 -53 -26 0 5 11 33 25 63 28 60 31 81 13 96 -10 7 -32 -3 -83 -39z"/>
<path d="M1275 4097 c-18 -15 -28 -36 -32 -64 -5 -39 -2 -46 29 -77 19 -19 47
-38 62 -42 42 -10 94 19 112 61 13 31 12 39 -1 71 -20 48 -41 40 -37 -16 3
-51 -10 -70 -50 -70 -33 0 -78 39 -78 68 0 22 27 48 55 54 11 2 21 11 23 21 5
26 -51 22 -83 -6z"/>
<path d="M3770 3969 c-108 -15 -112 -16 -99 -40 8 -15 17 -19 35 -15 19 5 26
0 40 -26 13 -25 14 -36 5 -51 -12 -18 -7 -57 7 -57 4 0 38 36 75 80 59 69 66
82 57 100 -12 22 -20 22 -120 9z m61 -47 c-5 -10 -17 -24 -25 -31 -12 -10 -17
-9 -25 8 -15 28 -15 29 22 34 17 2 33 5 35 5 1 1 -2 -6 -7 -16z"/>
<path d="M1134 3816 c-26 -19 -71 -114 -58 -125 8 -8 170 -81 178 -81 8 0 46
101 46 122 0 69 -108 124 -166 84z m106 -56 c23 -23 26 -49 7 -74 -12 -17 -16
-16 -70 8 l-58 25 16 31 c13 25 22 30 50 30 22 0 43 -8 55 -20z"/>
<path d="M3922 3737 c-20 -11 -21 -15 -9 -31 14 -18 15 -18 35 2 13 13 28 19
38 15 12 -4 15 -2 12 8 -6 19 -47 22 -76 6z"/>
<path d="M3948 3683 c-20 -5 -23 -20 -9 -42 7 -11 13 -9 31 9 12 12 28 19 37
16 9 -4 13 -1 11 6 -5 14 -41 19 -70 11z"/>
<path d="M3975 3596 c-14 -10 -19 -27 -19 -72 -1 -47 -4 -59 -18 -62 -25 -5
-46 43 -30 69 18 28 15 51 -5 47 -28 -5 -44 -49 -33 -88 13 -45 38 -70 71 -70
43 0 59 24 59 85 0 56 7 69 29 55 10 -6 12 -20 7 -54 -6 -36 -4 -46 6 -46 44
0 53 86 13 125 -27 28 -52 31 -80 11z"/>
<path d="M1123 3583 c-57 -2 -103 -8 -103 -13 0 -4 -2 -15 -5 -22 -7 -17 150
-152 165 -143 14 9 12 26 -6 46 -25 27 -2 87 34 91 19 2 28 10 30 26 2 12 0
21 -5 20 -4 -1 -54 -4 -110 -5z m17 -55 c-1 -32 -15 -36 -45 -12 l-30 24 38 0
c23 0 37 -5 37 -12z"/>
<path d="M986 3398 c-21 -19 -63 -125 -53 -134 7 -8 191 -53 197 -49 4 2 13
31 20 64 11 54 11 63 -4 87 -19 28 -71 54 -110 54 -14 0 -36 -10 -50 -22z
m115 -49 c15 -15 19 -28 14 -47 -4 -15 -9 -29 -11 -31 -2 -3 -30 2 -62 10 -50
14 -57 18 -54 39 1 13 7 29 13 37 18 20 76 16 100 -8z"/>
<path d="M3910 3375 c0 -9 13 -22 30 -28 37 -14 54 -72 26 -92 -21 -16 -22
-59 -1 -51 8 3 51 31 95 62 55 38 79 61 76 71 -3 8 -6 18 -6 23 0 4 -28 10
-62 14 -35 4 -84 9 -110 13 -41 5 -48 3 -48 -12z m148 -44 c10 -6 7 -12 -11
-24 -27 -17 -37 -13 -37 15 0 19 25 24 48 9z"/>
<path d="M4051 3191 c-83 -16 -98 -24 -83 -48 5 -9 19 -9 47 -3 80 19 84 13
28 -40 -38 -34 -53 -56 -53 -75 0 -21 4 -25 23 -20 12 2 51 9 87 15 94 16 99
18 93 41 -4 15 -11 19 -32 15 -14 -3 -44 -8 -66 -12 l-40 -6 58 52 c39 36 57
59 57 76 0 28 -1 28 -119 5z"/>
<path d="M916 3184 c-4 -9 -4 -19 -2 -22 5 -5 172 -41 194 -42 8 0 12 9 10 22
-3 19 -14 25 -88 40 -106 21 -107 21 -114 2z"/>
<path d="M922 3093 c-18 -7 -42 -57 -42 -88 0 -35 35 -67 68 -63 21 2 33 15
54 53 30 56 51 64 56 22 3 -20 -4 -35 -22 -52 -29 -27 -34 -45 -12 -45 42 0
76 44 76 97 0 69 -68 99 -109 47 -12 -15 -21 -33 -21 -40 0 -17 -30 -45 -41
-39 -17 11 -9 54 11 65 38 20 22 59 -18 43z"/>
<path d="M886 2877 c-14 -10 -20 -32 -24 -85 l-5 -72 30 0 c17 0 64 -3 106 -6
73 -7 77 -6 77 13 0 23 -18 33 -56 33 -20 0 -24 5 -24 28 0 37 17 52 57 52 26
0 33 4 33 20 0 16 -7 20 -37 20 -21 0 -44 -4 -52 -9 -9 -6 -19 -4 -28 5 -18
18 -54 18 -77 1z m72 -71 c4 -35 -9 -50 -37 -41 -15 4 -21 15 -21 34 0 34 8
43 35 39 14 -2 21 -12 23 -32z"/>
<path d="M4125 2883 c-93 -6 -115 -12 -115 -33 0 -17 7 -20 40 -20 39 0 40 -1
40 -33 0 -48 24 -77 64 -77 50 0 66 25 66 103 0 63 -1 67 -22 65 -13 -1 -45
-3 -73 -5z m61 -68 c12 -50 -39 -76 -57 -28 -13 35 -5 53 25 53 19 0 27 -7 32
-25z"/>
<path d="M4020 2700 c0 -13 10 -24 25 -30 21 -8 25 -16 25 -49 0 -33 -4 -40
-25 -45 -16 -4 -25 -13 -25 -26 0 -27 10 -26 118 17 84 33 93 39 90 61 -3 21
-16 29 -97 58 -51 19 -97 34 -102 34 -5 0 -9 -9 -9 -20z m139 -70 c9 -5 4 -11
-19 -19 -42 -14 -40 -15 -40 15 0 22 3 24 23 18 12 -3 28 -10 36 -14z"/>
<path d="M855 2637 c-4 -18 -5 -53 -3 -77 l3 -45 103 -3 102 -3 0 81 c0 73 -2
80 -20 80 -18 0 -20 -7 -20 -55 0 -52 -1 -55 -25 -55 -23 0 -25 3 -25 50 0 38
-4 50 -15 50 -11 0 -15 -12 -15 -50 0 -47 -2 -50 -25 -50 -24 0 -25 3 -25 55
0 41 -4 55 -15 55 -8 0 -17 -14 -20 -33z"/>
<path d="M4020 2436 c0 -79 6 -95 38 -107 18 -7 31 -5 49 6 19 13 28 14 38 5
22 -18 58 -8 72 20 7 14 13 48 13 76 l0 51 -67 6 c-38 4 -85 7 -105 7 l-38 0
0 -64z m88 -23 c-2 -30 -7 -38 -23 -38 -16 0 -21 8 -23 38 -3 34 -1 37 23 37
24 0 26 -3 23 -37z m82 3 c0 -36 -19 -53 -39 -33 -12 12 -15 50 -4 60 3 4 15
7 25 7 14 0 18 -8 18 -34z"/>
<path d="M859 2448 c6 -16 23 -26 62 -36 30 -7 58 -17 62 -21 5 -5 -21 -19
-57 -32 -56 -19 -66 -26 -66 -46 0 -13 3 -23 8 -23 4 0 50 17 102 38 83 33 95
41 98 63 3 25 -1 27 -96 52 -121 33 -124 33 -113 5z"/>
<path d="M4007 2245 c-12 -83 -9 -107 11 -103 13 2 18 15 20 51 l3 49 77 -7
c42 -4 81 -8 87 -9 5 0 11 9 13 20 3 23 -3 25 -144 40 l-61 6 -6 -47z"/>
<path d="M955 2263 c-70 -6 -85 -12 -85 -34 0 -20 3 -21 78 -15 115 10 132 15
132 37 0 20 -17 22 -125 12z"/>
<path d="M1040 2174 c-8 -1 -48 -8 -87 -14 -63 -10 -73 -15 -73 -32 0 -19 4
-20 68 -13 l67 7 -57 -52 c-64 -57 -76 -90 -30 -89 15 0 61 6 102 12 67 11 75
14 78 36 4 22 2 23 -35 17 -108 -19 -104 -22 -40 36 76 70 79 108 7 92z"/>
<path d="M3999 2081 c-47 -47 -33 -132 26 -159 65 -30 136 -5 155 53 24 71
-27 135 -107 135 -36 0 -50 -6 -74 -29z m135 -40 c25 -26 14 -68 -21 -82 -70
-26 -139 54 -80 96 27 19 74 13 101 -14z"/>
<path d="M988 1932 c-66 -14 -76 -23 -60 -49 6 -9 25 -8 79 4 83 18 106 10
101 -36 -3 -23 -11 -28 -80 -46 -76 -19 -86 -27 -70 -52 12 -19 152 20 176 49
25 32 16 95 -19 125 -30 26 -35 26 -127 5z"/>
<path d="M4060 1862 c0 -15 34 -40 60 -44 19 -2 25 1 25 17 0 15 -7 20 -27 20
-14 0 -30 3 -34 8 -10 10 -24 9 -24 -1z"/>
<path d="M4050 1794 c0 -8 16 -22 36 -30 40 -17 41 -17 46 11 2 17 -2 20 -29
19 -18 -1 -33 2 -33 7 0 5 -4 9 -10 9 -5 0 -10 -7 -10 -16z"/>
<path d="M1161 1393 c14 -61 11 -67 -37 -94 l-47 -26 55 -7 55 -7 15 -52 14
-52 22 49 22 49 58 -7 57 -6 -43 37 -44 38 21 48 c11 26 17 47 13 47 -4 0 -22
-9 -40 -20 -43 -27 -53 -25 -87 10 -38 39 -45 38 -34 -7z"/>
<path d="M3877 1397 l-37 -31 -41 23 c-22 13 -43 21 -45 18 -3 -3 4 -23 15
-46 l21 -40 -42 -40 -43 -40 56 6 57 6 23 -49 22 -49 12 50 11 50 54 10 54 11
-46 27 -46 27 9 41 c6 23 8 45 7 49 -2 4 -20 -6 -41 -23z"/>
<path d="M1867 531 c-39 -74 -44 -90 -31 -95 23 -9 31 -1 59 55 14 27 27 49
29 49 2 0 -2 -32 -9 -70 -11 -64 -11 -72 5 -80 13 -7 25 -1 51 26 61 64 76 63
39 -1 -26 -46 -30 -59 -19 -66 8 -5 17 -9 21 -9 8 0 98 162 98 177 0 5 -12 15
-27 22 -25 11 -29 9 -81 -41 -36 -35 -52 -46 -49 -33 3 11 8 38 12 60 3 22 8
47 11 56 4 14 -31 39 -54 39 -4 0 -28 -40 -55 -89z"/>
<path d="M3133 613 c-7 -2 -13 -9 -13 -14 0 -13 100 -169 108 -169 4 0 13 4
21 9 11 7 3 26 -39 95 -29 47 -55 86 -59 85 -3 0 -12 -3 -18 -6z"/>
<path d="M3076 577 c-15 -11 -16 -20 -7 -77 6 -36 11 -69 11 -75 -1 -5 -24 16
-53 48 -49 54 -53 57 -72 43 -19 -14 -17 -18 55 -90 41 -42 77 -76 80 -76 4 0
14 6 24 13 17 12 17 19 3 116 -9 57 -17 105 -20 107 -2 2 -11 -2 -21 -9z"/>
<path d="M2888 493 c-9 -2 -20 -17 -23 -33 -9 -40 -18 -43 -48 -20 -14 11 -32
20 -40 20 -31 0 -26 -19 14 -52 l41 -35 -18 -56 c-10 -31 -15 -59 -12 -63 8
-7 48 14 48 26 0 5 5 21 10 36 l11 27 29 -28 c23 -22 34 -26 57 -20 l28 7 -50
42 -49 43 13 43 c7 23 15 48 18 56 5 14 1 15 -29 7z"/>
<path d="M2152 474 c-57 -39 -67 -116 -23 -166 24 -27 36 -33 70 -33 49 0 94
36 73 57 -10 10 -18 9 -41 -5 -36 -21 -45 -21 -65 -1 -23 22 -20 80 4 104 32
32 66 25 89 -17 16 -31 41 -30 41 1 0 57 -97 96 -148 60z"/>
<path d="M2337 374 c-11 -122 -10 -134 12 -134 16 0 20 11 26 68 9 74 5 78 36
-40 16 -60 40 -50 75 30 l30 67 -4 -72 c-4 -68 -3 -73 16 -73 18 0 21 9 27 88
4 48 9 95 11 105 4 14 -1 17 -31 17 -28 0 -37 -5 -44 -22 -5 -13 -18 -43 -28
-68 l-20 -45 -17 73 c-10 39 -23 72 -30 72 -6 0 -20 3 -32 6 -20 5 -21 0 -27
-72z"/>
<path d="M2605 430 c-6 -10 12 -190 20 -198 2 -3 35 -1 72 4 50 7 68 13 68 24
0 12 -11 15 -51 13 l-52 -2 -6 67 c-4 37 -10 75 -12 85 -6 19 -29 23 -39 7z"/>
</g>
</svg>
